<?xml version="1.0" standalone="no"?>
<!DOCTYPE svg PUBLIC "-//W3C//DTD SVG 20010904//EN"
 "http://www.w3.org/TR/2001/REC-SVG-20010904/DTD/svg10.dtd">
<svg version="1.0" xmlns="http://www.w3.org/2000/svg"
 width="1080.000000pt" height="1080.000000pt" viewBox="0 0 1080.000000 1080.000000"
 preserveAspectRatio="xMidYMid meet">

<g transform="translate(0.000000,1080.000000) scale(0.100000,-0.100000)"
fill="#000000" stroke="none">
<path d="M2820 8990 l0 -160 400 0 400 0 0 160 0 160 -400 0 -400 0 0 -160z"/>
<path d="M1740 8535 l0 -205 1020 0 1020 0 0 205 0 205 -1020 0 -1020 0 0
-205z"/>
<path d="M1440 6315 l0 -1905 -675 0 -675 0 0 -625 0 -625 3401 2 3401 3 19
24 c18 23 19 59 19 1407 l0 1384 -365 0 -365 0 0 390 0 390 365 0 365 0 0 229
c0 203 -2 231 -17 250 l-18 22 -1137 6 -1138 6 0 -1001 0 -1002 -270 0 -270 0
0 1475 0 1475 -1320 0 -1320 0 0 -1905z m2325 1440 l0 -150 -1007 -3 -1008 -2
0 155 0 155 1008 -2 1007 -3 0 -150z m0 -505 l0 -155 -1007 -3 -1008 -2 0 160
0 160 1008 -2 1007 -3 0 -155z m0 -505 l0 -150 -1007 -3 -1008 -2 0 155 0 155
1008 -2 1007 -3 0 -150z m0 -500 l0 -150 -1007 -3 -1008 -2 0 155 0 155 1008
-2 1007 -3 0 -150z m0 -500 l0 -150 -1005 0 -1005 0 -3 153 -3 152 1008 -2
1008 -3 0 -150z m0 -405 l0 -65 -572 -3 -572 -2 -3 -88 -3 -87 -432 -3 -433
-2 0 153 c0 85 3 157 7 160 3 4 457 6 1007 5 l1001 -3 0 -65z m-547 -608 l2
-213 -152 3 -153 3 -3 200 c-1 110 0 205 3 212 3 11 38 13 152 11 l148 -3 3
-213z m510 210 c9 -7 12 -56 10 -213 l-3 -204 -149 -3 c-113 -2 -151 1 -158
10 -13 22 -10 392 4 406 14 14 275 17 296 4z m521 -6 c8 -9 11 -74 9 -212 l-3
-199 -155 0 -155 0 -3 200 c-1 110 0 205 2 212 8 19 289 18 305 -1z m516 -201
l0 -210 -150 0 -150 0 -3 200 c-1 110 0 205 3 212 3 11 38 13 152 11 l148 -3
0 -210z m513 207 c9 -7 12 -56 10 -213 l-3 -204 -155 0 -155 0 -3 204 c-2 157
1 206 10 213 7 4 74 8 148 8 74 0 141 -4 148 -8z m-2660 -199 l3 -153 -436 0
-435 0 0 155 0 155 433 -2 432 -3 3 -152z m0 -500 l3 -153 -436 0 -435 0 0
148 c0 82 3 152 7 155 3 4 198 6 432 5 l426 -3 3 -152z m-3 -498 l0 -150 -432
-3 -433 -2 0 148 c0 82 3 152 7 155 3 4 198 6 432 5 l426 -3 0 -150z"/>
<path d="M8732 7776 l-294 -11 -20 -25 c-19 -24 -20 -34 -13 -245 4 -121 10
-223 14 -227 4 -5 703 16 749 22 4 0 0 266 -7 363 -7 116 -22 138 -95 135 -22
0 -173 -6 -334 -12z"/>
<path d="M9745 7013 c-333 -47 -345 -51 -345 -107 1 -53 58 -428 67 -436 4 -3
172 17 373 45 303 42 365 54 368 67 2 9 -11 113 -27 230 -27 183 -34 215 -52
231 -27 22 -19 23 -384 -30z"/>
<path d="M8685 7007 c-143 -5 -261 -10 -261 -11 -3 -3 117 -3320 120 -3323 6
-7 744 22 751 29 4 3 -20 750 -52 1660 l-58 1653 -120 1 c-66 1 -237 -3 -380
-9z"/>
<path d="M7240 6741 c-45 -12 -50 -39 -50 -273 l0 -218 510 0 510 0 0 228 c0
125 -4 232 -8 239 -19 30 -69 33 -500 32 -240 -1 -448 -4 -462 -8z"/>
<path d="M9870 6253 c-201 -30 -367 -56 -369 -58 -6 -7 420 -2978 430 -2997 6
-10 20 -23 32 -27 27 -10 672 82 693 100 8 6 14 28 14 49 0 30 -392 2819 -415
2958 -3 17 -9 31 -13 31 -4 -1 -171 -26 -372 -56z"/>
<path d="M7190 4466 c0 -1220 1 -1254 19 -1277 l19 -24 477 0 c460 0 477 1
491 19 12 17 14 207 14 1278 l0 1258 -510 0 -510 0 0 -1254z"/>
<path d="M8855 3416 l-300 -11 -3 -66 c-4 -103 8 -162 38 -175 19 -8 111 -8
357 1 297 10 335 14 353 30 22 20 24 51 13 168 l-6 67 -76 -2 c-42 -1 -211 -6
-376 -12z"/>
</g>
</svg>
